# xmcd
# 
# Track frame offsets:
#     183
#     13435
#     23563
#     36465
#     50635
#     62463
#     76555
#     88630
#     102728
#     115738
#     129515
#     143048
#     156775
#     168363
#     182160
#     196030
# 
# Disc length: 2750
# 
# Revision: 6
# Processed by: cddbd v1.5.2PL0 Copyright (c) Steve Scherf et al.
# Submitted via: fre:ac v1.0.27
# 
DISCID=ce0abc10
DTITLE=Billie Holiday - Featuring Lester Young
DYEAR=1990
DGENRE=Jazz
TTITLE0=I must have that man !
TTITLE1=Trav'lin' all alone
TTITLE2=Without your love
TTITLE3=I'll Get by
TTITLE4=Me, myself and I (Are all in love with you)
TTITLE5=This year's kisses
TTITLE6=Back in your own backyard
TTITLE7=Mean to me
TTITLE8=A sailboat in the moonlight
TTITLE9=I'll never be the same
TTITLE10=Foolin' myself
TTITLE11=Getting some fun out your life
TTITLE12=Say it with a kiss
TTITLE13=Easy living
TTITLE14=The man I love
TTITLE15=Romance in the dark
EXTD=Featuring Lester Young YEAR: 1937
EXTT0=Field/McHugh
EXTT1=Johnson
EXTT2=Lange/Stryker
EXTT3=Turk/Ahlert
EXTT4=Gordon/Roberts/Kaufman
EXTT5=I. Berlin
EXTT6=Al Jolson/B. Rose
EXTT7=Turk/Ahlert
EXTT8=Lombardo/Loeh
EXTT9=Malneck/Signorelli/kahn
EXTT10=Tinturin/Lawrence
EXTT11=J. Burke/E. Leslie
EXTT12=Mercer/Warren
EXTT13=Robin/Rainger
EXTT14=L. and G. Gershwin
EXTT15=
PLAYORDER=
